<svg width="117" height="150" viewBox="0 0 117 150" fill="none" xmlns="http://www.w3.org/2000/svg">
<g id="379638266_224936237237331_7200955415930748889_n 1">
<g id="Group">
<path id="Vector" d="M112.715 0.0255585C106.686 1.09656 101.696 3.98557 97.5767 8.78256C96.2446 10.3486 95.2975 11.7166 93.4572 14.7676C89.7458 20.9056 88.7294 22.2376 80.9678 31.1566C78.6424 33.8296 76.5018 36.3856 75.3314 37.9066C70.1647 44.5846 65.8065 51.0646 58.4607 62.9716C56.528 66.0946 56.2277 66.5896 56.0352 66.9856L55.8504 67.3546L55.1728 67.4626C54.0871 67.6426 53.3248 67.9036 52.4778 68.3896C51.8541 68.7496 51.5538 68.9926 51.0533 69.5416C50.3526 70.3156 50.0138 70.8556 49.0513 72.7816C48.6894 73.5016 48.212 74.3386 47.9887 74.6356L47.5729 75.1936L47.3419 74.9596C47.0493 74.6716 46.3948 74.3116 46.1638 74.3116C45.8327 74.3116 45.4862 74.5456 45.3784 74.8426C45.3014 75.0766 45.3014 75.2836 45.3784 75.9586C45.4323 76.4086 45.4862 76.8316 45.5093 76.8946C45.5324 76.9486 45.0858 77.3536 44.4775 77.8306C42.6064 79.2886 41.2358 80.6746 40.0654 82.3036C39.7035 82.7986 39.357 83.1856 39.1414 83.3206C38.9489 83.4376 38.6794 83.7256 38.5254 83.9686C38.2713 84.3736 38.2405 84.4006 37.9864 84.3466C37.8401 84.3196 36.8545 84.2746 35.7919 84.2476C33.6821 84.1846 32.6118 84.2836 30.5944 84.7156C26.2978 85.6336 19.8529 88.5316 16.3032 91.1416C12.9306 93.6166 10.7977 96.1456 7.51747 101.537C2.79737 109.313 0.964774 114.749 1.12647 120.527C1.18807 122.795 1.31897 123.497 2.18907 126.512C2.78197 128.573 2.87437 129.194 2.87437 131.147C2.88207 133.226 3.06687 133.838 4.47597 136.277C5.67717 138.365 6.49337 139.553 7.57907 140.777C8.82647 142.19 9.91987 143 11.3521 143.594L12.0143 143.864L12.0605 142.325C12.1221 140.057 12.4532 138.482 13.2694 136.592C13.5928 135.836 14.3628 134.414 14.409 134.477C14.4244 134.495 14.3474 134.837 14.2396 135.242C13.2463 138.914 13.2925 143.306 14.3705 146.987C14.5861 147.716 15.3638 149.921 15.3946 149.885C15.41 149.867 15.6333 148.877 15.8874 147.671C16.1492 146.465 16.488 145.043 16.6574 144.512C17.3581 142.217 18.3052 140.642 19.6219 139.589C20.0762 139.22 21.1388 138.644 21.9011 138.338C22.5864 138.068 24.0956 137.582 24.2496 137.582C24.2804 137.582 24.0494 137.861 23.726 138.212C23.2255 138.752 22.5402 139.688 20.261 142.955C19.9684 143.36 19.7374 143.72 19.7374 143.747C19.7374 143.783 20.3842 143.225 21.185 142.523C22.8097 141.074 24.5576 139.526 25.2506 138.905C25.5124 138.68 26.036 138.347 26.4441 138.158C30.0785 136.466 34.1672 132.92 38.1558 128.015C40.0115 125.729 42.2984 122.786 43.9693 120.527C47.6268 115.577 49.5133 111.842 50.5066 107.621C51.0379 105.353 51.2381 103.58 51.2458 101.15C51.2535 98.9446 51.0918 97.4956 50.6375 95.7136L50.4373 94.9306L50.676 94.4986C51.061 93.7966 51.4306 92.8516 51.6462 92.0506C51.8002 91.4836 51.9234 91.2136 52.1159 90.9886C52.4085 90.6556 52.5086 90.2506 52.4316 89.7016L52.3854 89.3506H52.7935C53.4326 89.3596 54.0563 88.8916 54.3258 88.2076C54.372 88.0906 54.4952 87.9826 54.6107 87.9466C54.7185 87.9196 55.0573 87.7576 55.3499 87.5866C55.6502 87.4246 56.0891 87.2446 56.3355 87.1816C56.8976 87.0466 57.2749 86.6866 57.4058 86.1646C57.4751 85.8676 57.6599 85.6066 58.2297 84.9766C60.3164 82.6636 62.4416 79.0816 63.1962 76.5796C63.689 74.9596 63.8353 73.0786 63.5581 71.8456L63.4195 71.2246L64.3897 69.8656C64.921 69.1096 65.6756 68.0566 66.0606 67.5166C68.001 64.7806 73.6759 57.9136 78.3344 52.6576C82.4539 48.0136 88.0056 41.8936 90.6159 39.1216C91.8017 37.8706 93.1723 36.4126 93.6574 35.8906C95.2513 34.1896 98.4545 30.3736 99.4016 29.0416C100.587 27.3766 101.357 26.1706 103.205 23.1016C106.378 17.8456 106.994 16.9636 110.251 13.1116C113.362 9.42155 114.332 8.02657 115.179 6.01056C115.679 4.84056 115.841 4.18356 115.887 3.21156C115.957 1.75356 115.61 0.862564 114.771 0.304565C114.409 0.0705566 114.27 0.0345612 113.654 0.00756836C113.262 -0.00143433 112.846 0.00756836 112.715 0.0255585ZM114.27 1.45656C114.979 2.00555 114.979 3.47256 114.263 5.23656C113.454 7.24356 112.638 8.41356 109.535 12.0766C106.293 15.8926 105.5 17.0176 102.435 22.1116C98.4699 28.7086 97.0531 30.5446 91.1164 36.8176C88.4907 39.5896 87.1201 41.0746 85.0334 43.3966C84.6715 43.7926 84.0324 44.5036 83.6089 44.9716C74.1225 55.4746 68.1935 62.4676 65.1135 66.8056C64.6515 67.4446 63.8661 68.5606 63.3579 69.2716C61.7409 71.5486 59.9776 73.4566 59.0074 73.9786C57.8755 74.5906 56.8437 73.7446 56.3817 71.8366C56.2123 71.1346 56.2508 69.6136 56.451 68.9656C56.7436 68.0386 57.1825 67.2646 59.9545 62.7826C66.4148 52.3696 70.2417 46.6276 74.5306 40.9216C77.1178 37.4746 78.4037 35.9266 84.8409 28.5016C89.4532 23.1916 91.0317 21.0496 93.8884 16.3066C96.2523 12.3736 96.9761 11.3206 98.5238 9.54756C99.8328 8.04456 100.857 7.07256 102.32 5.94756C105.377 3.59856 108.78 2.06856 112.407 1.40256C113.416 1.22256 113.978 1.24055 114.27 1.45656ZM55.2806 68.9746C55.2498 69.1186 55.2036 69.6946 55.1805 70.2706C55.1497 71.1346 55.1651 71.4316 55.296 72.0436C55.5193 73.0696 55.8889 73.8976 56.3894 74.4916C57.0054 75.2296 57.4135 75.4366 58.2836 75.4366C58.9304 75.4366 59.0151 75.4186 59.5541 75.1036C60.2471 74.6986 60.9632 74.0686 61.8179 73.1326C62.1644 72.7366 62.4801 72.4216 62.5109 72.4216C62.5417 72.4216 62.5494 72.9616 62.534 73.6096C62.4878 75.0766 62.2876 75.9316 61.6254 77.5156C60.8015 79.4956 59.5079 81.5746 57.9448 83.4196L57.0593 84.4726L56.7205 84.1936C56.297 83.8606 54.8725 83.0686 53.0245 82.1416C51.2766 81.2686 50.4912 80.7286 49.8444 79.9816C49.2823 79.3246 49.0051 78.7666 48.5354 77.3086L48.2043 76.3006L48.6432 75.7516C49.1591 75.0946 49.5056 74.5006 50.1524 73.1866C51.3305 70.7926 51.985 70.0006 53.3864 69.3166C53.7868 69.1186 54.9187 68.7676 55.2652 68.7406C55.296 68.7316 55.3037 68.8396 55.2806 68.9746ZM46.5719 75.5266C47.0262 75.8326 47.3881 76.5076 47.8501 77.8936C48.7279 80.5576 49.6365 81.4936 52.8859 83.0776C56.2123 84.6886 56.6127 84.9586 56.7282 85.6156C56.7667 85.8136 56.7436 85.9486 56.6281 86.1196C56.451 86.3806 56.1122 86.5156 55.9813 86.3896C55.9274 86.3446 55.5578 86.1916 55.1574 86.0656C52.8166 85.2826 50.6529 83.8696 48.8742 81.9256C48.5662 81.6016 48.2659 81.3316 48.1966 81.3316C47.9502 81.3316 48.0888 81.6736 48.6047 82.3306C50.0985 84.2296 52.3084 85.7506 54.5414 86.4166L55.1959 86.6146L54.8725 86.7226C54.4567 86.8576 54.1487 87.1636 53.7637 87.8206C53.4018 88.4416 53.2863 88.5316 52.7935 88.5316C52.2391 88.5316 51.6154 88.1356 50.5682 87.1186C48.5354 85.1386 46.672 82.7176 45.286 80.2606C44.8702 79.5316 44.7624 79.2616 44.7778 79.0456C44.8163 78.6046 45.1397 78.5506 45.9636 78.8476C46.3255 78.9826 46.6412 79.0726 46.6643 79.0546C46.6797 79.0276 46.6412 78.7036 46.5719 78.3166C46.4333 77.5246 46.1484 75.5806 46.1484 75.4096C46.1484 75.2566 46.2023 75.2746 46.5719 75.5266ZM44.2542 80.1976C44.5468 80.7826 45.7018 82.6186 46.364 83.5366C46.6874 83.9776 47.4651 84.9496 48.0965 85.6876C49.136 86.9026 49.2207 87.0196 48.982 86.9656C48.8434 86.9386 48.1581 86.8756 47.4574 86.8216C46.7567 86.7676 45.9636 86.6866 45.6941 86.6326C44.5699 86.4256 43.4457 85.8046 42.3446 84.7606C41.6285 84.0856 41.1588 83.7706 40.8585 83.7616C40.5582 83.7616 40.5813 83.5816 40.9663 83.0596C41.6978 82.0516 43.7922 79.8016 44.0001 79.8016C44.0309 79.8016 44.1464 79.9816 44.2542 80.1976ZM39.7112 84.2746C39.3031 84.7606 39.2492 85.7956 39.6034 86.5426C39.7497 86.8486 39.8344 87.1636 39.8344 87.3796C39.8344 87.8746 40.1655 88.9906 40.4966 89.5846C41.3205 91.0876 42.8528 92.3566 45.3707 93.6166C48.0118 94.9306 48.8434 95.6776 48.1273 96.0736C47.6191 96.3526 45.4631 95.6236 44.0848 94.7056C40.9047 92.5816 39.357 90.6556 38.8257 88.1716C38.5254 86.7766 38.7333 85.0936 39.2954 84.3916C39.4109 84.2476 39.588 84.1216 39.6804 84.1216C39.8344 84.1216 39.8344 84.1306 39.7112 84.2746ZM41.0279 84.6256C41.1665 84.6976 41.4976 84.9766 41.7748 85.2376C42.9683 86.3896 43.8692 86.9476 45.1089 87.2986C45.7249 87.4786 46.0406 87.5236 47.4959 87.6316C48.1735 87.6856 48.9435 87.7936 49.213 87.8656C50.4219 88.1806 51.7694 89.3326 51.7694 90.0436C51.7694 90.3586 51.4152 90.6736 50.8146 90.8986C50.0677 91.1686 48.7433 91.1596 47.6576 90.8716C45.9328 90.4216 43.6921 89.3056 41.898 88.0006C40.2579 86.8036 39.7266 85.9126 40.1116 84.9766C40.2964 84.5086 40.6044 84.3916 41.0279 84.6256ZM37.0239 85.5616C37.4859 85.6156 37.8786 85.6786 37.9017 85.6966C37.9171 85.7236 37.7708 86.1376 37.5783 86.6236C37.1779 87.6226 37.0085 88.2976 36.9315 89.1796L36.8853 89.7916H36.431C35.7996 89.7916 33.8977 90.0256 32.7504 90.2506C29.1545 90.9526 25.9051 92.5546 23.9724 94.5976C23.7953 94.7776 23.6644 94.9486 23.6798 94.9666C23.6875 94.9756 24.0648 94.7146 24.5037 94.3726C27.3373 92.2126 30.579 90.9616 35.0296 90.3316C36.9392 90.0616 36.9161 90.0616 36.9469 90.1786C37.0932 90.7636 37.1009 90.7546 36.5003 90.9166C35.507 91.2046 34.198 91.7716 33.0969 92.3926C31.349 93.3826 28.6309 95.3716 29.0313 95.3716C29.0621 95.3716 29.5087 95.1016 30.0169 94.7776C32.8043 92.9776 34.814 91.9336 36.7236 91.2856L37.124 91.1596L37.2934 91.6636C37.8401 93.3466 39.0798 94.8406 40.9355 96.0376C41.2204 96.2266 41.4514 96.3976 41.4514 96.4336C41.4514 96.5416 40.7199 98.4046 40.3888 99.1516C38.4407 103.499 35.7149 107.171 31.0564 111.707C29.3547 113.363 28.7464 114.02 28.7464 114.191C28.7464 114.281 28.7926 114.362 28.8542 114.362C29.0775 114.362 31.4568 112.31 33.1739 110.636C34.4983 109.349 36.9777 106.415 37.9017 105.056C39.5495 102.617 40.9663 99.7366 41.6824 97.3516C41.7825 97.0276 41.8826 96.7396 41.9134 96.6946C41.9365 96.6586 42.1829 96.7306 42.4601 96.8566C43.7768 97.4686 45.363 97.7116 46.5719 97.4956C47.5883 97.3156 48.5046 96.9196 49.0821 96.3976L49.5364 95.9926L49.6134 96.2266C49.752 96.6406 49.9907 98.1886 50.0831 99.2326C50.1909 100.493 50.1293 103.157 49.9599 104.399C49.2053 109.979 47.3265 114.056 42.6141 120.347C36.4387 128.591 33.0045 132.362 29.2084 135.062C28.8542 135.305 28.5385 135.512 28.5 135.512C28.4615 135.512 28.3922 135.386 28.346 135.233C28.2921 135.035 28.2305 134.972 28.1381 135.008C27.4451 135.287 25.8974 135.782 24.7116 136.106C23.9031 136.322 22.8867 136.628 22.4401 136.781C18.5747 138.086 16.7421 140.102 15.5178 144.368C15.3561 144.944 15.2021 145.439 15.179 145.466C15.1097 145.538 14.8941 144.377 14.7555 143.216C14.5784 141.731 14.6554 138.905 14.9172 137.438C15.3407 135.008 15.9952 133.217 17.4505 130.49C17.9125 129.626 18.2744 128.915 18.259 128.897C18.2128 128.843 15.6333 131.093 15.0635 131.696C13.4927 133.343 12.2376 135.611 11.5369 138.068C11.2443 139.103 10.9594 140.813 10.9594 141.551C10.9594 141.794 10.9286 141.992 10.8978 141.992C10.7669 141.992 9.57337 141.11 9.08827 140.66C8.22587 139.859 7.24797 138.329 6.81677 137.105C5.83887 134.351 6.37787 131.264 8.38757 128.141C8.74947 127.583 9.02667 127.097 9.00357 127.079C8.93427 126.998 7.88707 128.231 7.46357 128.897C6.61657 130.202 6.05447 131.75 5.86967 133.253C5.76187 134.126 5.81577 135.512 5.98517 136.205C6.04677 136.466 6.08527 136.682 6.06987 136.682C6.06217 136.682 5.77727 136.205 5.43847 135.62C4.09097 133.325 4.02167 133.091 3.96777 130.877C3.93697 129.302 3.93697 129.239 4.12947 128.699C4.41437 127.871 4.95337 126.872 5.69257 125.756C6.05447 125.225 6.33167 124.757 6.30857 124.73C6.22387 124.64 5.36917 125.495 4.86867 126.188C4.58377 126.584 4.21417 127.169 4.05247 127.493C3.84457 127.916 3.75217 128.033 3.73677 127.898C3.72137 127.808 3.45187 126.836 3.13617 125.747C2.40467 123.2 2.24297 122.174 2.23527 120.032C2.21987 115.163 3.72137 110.42 7.17097 104.426C8.88807 101.438 10.482 98.9626 11.8911 97.1176C14.6169 93.5176 18.3437 90.8086 23.9724 88.3246C29.0467 86.0836 33.3972 85.1656 37.0239 85.5616ZM41.6285 88.6486C44.3004 90.7276 48.0118 92.1586 49.983 91.8796C50.522 91.8076 50.5374 91.8076 50.4989 91.9876C50.368 92.5366 49.7135 93.8776 49.3285 94.3726L48.905 94.9216L48.5739 94.5886C48.0965 94.0846 47.2495 93.5536 45.7095 92.7616C42.8759 91.3216 41.4899 90.0436 40.8739 88.3246C40.7815 88.0726 40.7815 88.0006 40.8508 88.0546C40.9047 88.0906 41.2589 88.3606 41.6285 88.6486ZM38.3252 89.4226C38.6409 90.3316 39.1953 91.3036 39.9037 92.1586C40.974 93.4546 42.0366 94.3186 44.1464 95.5786L45.3399 96.2896L44.8779 96.2356C42.7373 95.9476 40.0962 94.2916 38.9874 92.5366C38.356 91.5376 38.0634 90.5746 38.0634 89.4946C38.0634 89.0986 38.0788 88.7926 38.0942 88.8106C38.1096 88.8286 38.2174 89.1076 38.3252 89.4226Z" fill="black"/>
<path id="Vector_2" d="M27.5143 98.6476C24.7885 100.034 21.9626 102.266 19.7065 104.822C18.821 105.83 17.9894 106.946 18.0587 107.036C18.0818 107.054 18.5977 106.577 19.206 105.974C22.3707 102.815 24.2264 101.267 27.6452 98.9356C28.6308 98.2696 28.5538 98.1166 27.5143 98.6476Z" fill="black"/>
<path id="Vector_3" d="M35.6378 99.7906C34.3519 101.321 33.3817 101.978 29.2083 104.129C24.1417 106.739 21.9703 108.143 19.7373 110.249C18.6978 111.23 17.2194 113.012 16.5649 114.101C15.7025 115.505 14.8247 117.656 15.0095 117.872C15.125 118.007 15.2251 117.872 15.6178 117.017C17.1963 113.588 19.6603 110.825 23.3563 108.332C24.3419 107.675 26.7982 106.235 28.1688 105.515C28.5923 105.29 29.1313 105.011 29.3623 104.885C33.2662 102.788 34.0824 102.248 35.1912 101.015C36.0459 100.061 36.5156 99.2416 36.1922 99.2416C36.1383 99.2416 35.8919 99.4846 35.6378 99.7906Z" fill="black"/>
<path id="Vector_4" d="M23.1255 132.326C21.7857 132.785 20.0378 133.973 18.775 135.278C17.3505 136.745 16.08 138.905 15.4871 140.867C15.2869 141.524 15.156 142.172 15.2253 142.172C15.2484 142.172 15.4486 141.758 15.6642 141.245C16.7653 138.689 18.0512 136.754 19.6759 135.215C20.7693 134.189 21.3468 133.766 22.856 132.893C24.3344 132.047 24.4037 131.885 23.1255 132.326Z" fill="black"/>
</g>
</g>
</svg>
